<svg width="305" height="92" viewBox="0 0 305 92" fill="none" xmlns="http://www.w3.org/2000/svg">
<path d="M139.491 92V0H160.658C164.325 0 167.364 0.557576 169.774 1.67273C172.219 2.78788 174.14 4.44318 175.537 6.63864C176.934 8.83409 177.93 11.5523 178.524 14.7932C179.117 17.9992 179.414 21.7106 179.414 25.9273V27.8614C179.414 33.7856 178.89 38.8386 177.842 43.0205C176.83 47.1674 174.996 50.3212 172.341 52.4818C169.687 54.6424 165.949 55.7227 161.129 55.7227H153.532V92H139.491ZM153.532 44.1705H158.352C160.413 44.1705 161.95 43.6477 162.963 42.6023C163.976 41.5568 164.639 39.8318 164.954 37.4273C165.303 34.9879 165.478 31.747 165.478 27.7045V25.9273C165.443 20.9439 165.006 17.1803 164.168 14.6364C163.33 12.0576 161.426 10.7682 158.457 10.7682H153.532V44.1705Z" fill="#85CB33"/>
<path d="M181.929 92L195.08 0H213.627L227.616 92H214.517L212.317 75.5864H197.437L195.446 92H181.929ZM198.8 64.3477H210.85L204.668 18.1386H204.458L198.8 64.3477Z" fill="#85CB33"/>
<path d="M236.313 92V0H250.354V92H236.313Z" fill="#85CB33"/>
<path d="M264.5 92V0H287.71C292.531 0 296.128 0.940909 298.503 2.82273C300.878 4.70455 302.433 7.45758 303.166 11.0818C303.935 14.7061 304.319 19.1318 304.319 24.3591C304.319 29.7606 303.76 34.0121 302.642 37.1136C301.56 40.1803 299.324 42.2364 295.936 43.2818C297.543 43.5606 298.888 44.2227 299.97 45.2682C301.053 46.2788 301.926 47.7773 302.59 49.7636C303.254 51.7152 303.725 54.2417 304.005 57.3432C304.319 60.4099 304.476 64.1735 304.476 68.6341C304.476 68.9826 304.476 69.9583 304.476 71.5614C304.476 73.1644 304.476 75.0636 304.476 77.2591C304.511 79.4197 304.546 81.5803 304.581 83.7409C304.616 85.9015 304.668 87.7485 304.738 89.2818C304.808 90.8152 304.895 91.7212 305 92H290.959C290.854 91.8258 290.767 90.9371 290.697 89.3341C290.662 87.6962 290.609 85.6227 290.54 83.1136C290.505 80.6045 290.47 77.9038 290.435 75.0114C290.435 72.1189 290.435 69.2788 290.435 66.4909C290.435 63.6682 290.435 61.1765 290.435 59.0159C290.435 56.2629 290.225 54.1894 289.806 52.7955C289.422 51.3667 288.688 50.3735 287.606 49.8159C286.558 49.2583 285.038 48.9273 283.047 48.8227L278.542 48.5614V92H264.5ZM278.594 37.6886H284.2C285.912 37.6886 287.204 37.3053 288.077 36.5386C288.985 35.772 289.596 34.3606 289.911 32.3045C290.26 30.2485 290.435 27.2864 290.435 23.4182V22.8432C290.435 19.6023 290.278 17.1106 289.963 15.3682C289.649 13.6258 288.985 12.4235 287.972 11.7614C286.994 11.0992 285.457 10.7682 283.362 10.7682H278.594V37.6886Z" fill="#85CB33"/>
<path d="M0 92V0H20.6952C25.3756 0 29.1305 0.940909 31.9597 2.82273C34.7889 4.6697 36.8322 7.35303 38.0896 10.8727C39.382 14.3924 40.0282 18.6439 40.0282 23.6273L40.0806 65.1318C40.0806 71.1606 39.4169 76.1788 38.0896 80.1864C36.7973 84.1591 34.7016 87.1212 31.8025 89.0727C28.9034 91.0242 25.0438 92 20.2237 92H0ZM14.0413 81.1273H18.6519C20.2935 81.1273 21.6557 80.7962 22.7385 80.1341C23.8562 79.472 24.6771 78.3045 25.201 76.6318C25.7598 74.9242 26.0393 72.5197 26.0393 69.4182L25.9869 23.9932C25.9869 19.2886 25.4106 15.9083 24.2579 13.8523C23.1053 11.7962 21.0794 10.7682 18.1803 10.7682H14.0413V81.1273Z" fill="#050505"/>
<path d="M52.812 92V0H76.0221C80.8422 0 84.4399 0.940909 86.815 2.82273C89.1902 4.70455 90.7445 7.45758 91.478 11.0818C92.2464 14.7061 92.6306 19.1318 92.6306 24.3591C92.6306 29.7606 92.0718 34.0121 90.9541 37.1136C89.8713 40.1803 87.6359 42.2364 84.2478 43.2818C85.8545 43.5606 87.1992 44.2227 88.282 45.2682C89.3648 46.2788 90.238 47.7773 90.9017 49.7636C91.5653 51.7152 92.0369 54.2417 92.3163 57.3432C92.6306 60.4099 92.7878 64.1735 92.7878 68.6341C92.7878 68.9826 92.7878 69.9583 92.7878 71.5614C92.7878 73.1644 92.7878 75.0636 92.7878 77.2591C92.8227 79.4197 92.8577 81.5803 92.8926 83.7409C92.9275 85.9015 92.9799 87.7485 93.0498 89.2818C93.1196 90.8152 93.207 91.7212 93.3117 92H79.2705C79.1657 91.8258 79.0783 90.9371 79.0085 89.3341C78.9736 87.6962 78.9212 85.6227 78.8513 83.1136C78.8164 80.6045 78.7815 77.9038 78.7465 75.0114C78.7465 72.1189 78.7465 69.2788 78.7465 66.4909C78.7465 63.6682 78.7465 61.1765 78.7465 59.0159C78.7465 56.2629 78.537 54.1894 78.1178 52.7955C77.7336 51.3667 77.0001 50.3735 75.9173 49.8159C74.8695 49.2583 73.3501 48.9273 71.3591 48.8227L66.8533 48.5614V92H52.812ZM66.9057 37.6886H72.5118C74.2233 37.6886 75.5156 37.3053 76.3888 36.5386C77.297 35.772 77.9082 34.3606 78.2226 32.3045C78.5719 30.2485 78.7465 27.2864 78.7465 23.4182V22.8432C78.7465 19.6023 78.5893 17.1106 78.275 15.3682C77.9606 13.6258 77.297 12.4235 76.2841 11.7614C75.3061 11.0992 73.7692 10.7682 71.6735 10.7682H66.9057V37.6886Z" fill="#050505"/>
<path d="M105.1 92V0H119.141V92H105.1Z" fill="#050505"/>
<path d="M133.288 92V0H154.454C158.122 0 161.161 0.557576 163.571 1.67273C166.016 2.78788 167.937 4.44318 169.334 6.63864C170.731 8.83409 171.726 11.5523 172.32 14.7932C172.914 17.9992 173.211 21.7106 173.211 25.9273V27.8614C173.211 33.7856 172.687 38.8386 171.639 43.0205C170.626 47.1674 168.792 50.3212 166.138 52.4818C163.483 54.6424 159.746 55.7227 154.926 55.7227H147.329V92H133.288ZM147.329 44.1705H152.149C154.21 44.1705 155.747 43.6477 156.76 42.6023C157.772 41.5568 158.436 39.8318 158.75 37.4273C159.1 34.9879 159.274 31.747 159.274 27.7045V25.9273C159.239 20.9439 158.803 17.1803 157.965 14.6364C157.126 12.0576 155.223 10.7682 152.254 10.7682H147.329V44.1705Z" fill="#050505"/>
</svg>
