<svg width="80" height="92" viewBox="0 0 80 92" fill="none" xmlns="http://www.w3.org/2000/svg">
<path d="M40.1569 92V0H61.281C64.9412 0 67.9739 0.557576 70.3791 1.67273C72.8192 2.78788 74.7364 4.44318 76.1307 6.63864C77.5251 8.83409 78.5185 11.5523 79.1111 14.7932C79.7037 17.9992 80 21.7106 80 25.9273V27.8614C80 33.7856 79.4771 38.8386 78.4314 43.0205C77.4205 47.1674 75.5904 50.3212 72.9412 52.4818C70.2919 54.6424 66.5621 55.7227 61.7516 55.7227H54.1699V92H40.1569ZM54.1699 44.1705H58.9804C61.037 44.1705 62.5708 43.6477 63.5817 42.6023C64.5926 41.5568 65.2549 39.8318 65.5686 37.4273C65.9172 34.9879 66.0915 31.747 66.0915 27.7045V25.9273C66.0566 20.9439 65.6209 17.1803 64.7843 14.6364C63.9477 12.0576 62.0479 10.7682 59.085 10.7682H54.1699V44.1705Z" fill="#85CB33"/>
<path d="M0 92V0H20.6536C25.3246 0 29.0719 0.940909 31.8954 2.82273C34.719 4.6697 36.7582 7.35303 38.0131 10.8727C39.3028 14.3924 39.9477 18.6439 39.9477 23.6273L40 65.1318C40 71.1606 39.3377 76.1788 38.0131 80.1864C36.7233 84.1591 34.6318 87.1212 31.7386 89.0727C28.8453 91.0242 24.9935 92 20.183 92H0ZM14.0131 81.1273H18.6144C20.2527 81.1273 21.6122 80.7962 22.6928 80.1341C23.8083 79.472 24.6275 78.3045 25.1503 76.6318C25.7081 74.9242 25.9869 72.5197 25.9869 69.4182L25.9346 23.9932C25.9346 19.2886 25.3595 15.9083 24.2092 13.8523C23.0588 11.7962 21.037 10.7682 18.1438 10.7682H14.0131V81.1273Z" fill="#050505"/>
</svg>
