<svg width="13" height="15" viewBox="0 0 13 15" fill="none" xmlns="http://www.w3.org/2000/svg">
<path d="M1.40351 15C1.01754 15 0.687135 14.8601 0.412281 14.5804C0.137427 14.3006 0 13.9643 0 13.5714V5C0 4.60714 0.137427 4.27083 0.412281 3.99107C0.687135 3.71131 1.01754 3.57143 1.40351 3.57143H2.30702C2.58316 3.57143 2.8031 3.34659 2.83762 3.07261C2.93537 2.2968 3.26727 1.62081 3.83333 1.04464C4.51754 0.348214 5.34503 0 6.31579 0C7.28655 0 8.11404 0.348214 8.79825 1.04464C9.36431 1.62081 9.69621 2.2968 9.79396 3.07261C9.82848 3.34659 10.0484 3.57143 10.3246 3.57143H11.2281C11.614 3.57143 11.9444 3.71131 12.2193 3.99107C12.4942 4.27083 12.6316 4.60714 12.6316 5V13.5714C12.6316 13.9643 12.4942 14.3006 12.2193 14.5804C11.9444 14.8601 11.614 15 11.2281 15H1.40351ZM1.40351 13.0714C1.40351 13.3476 1.62737 13.5714 1.90351 13.5714H10.7281C11.0042 13.5714 11.2281 13.3476 11.2281 13.0714V5.5C11.2281 5.22386 11.0042 5 10.7281 5H1.90351C1.62737 5 1.40351 5.22386 1.40351 5.5V13.0714ZM6.31579 9.28571C7.28655 9.28571 8.11404 8.9375 8.79825 8.24107C9.36431 7.6649 9.69621 6.98891 9.79396 6.21311C9.82848 5.93913 9.6007 5.71429 9.32456 5.71429H8.92105C8.64491 5.71429 8.42825 5.9409 8.36919 6.21065C8.28479 6.59608 8.0974 6.93657 7.80702 7.23214C7.39766 7.64881 6.90058 7.85714 6.31579 7.85714C5.73099 7.85714 5.23392 7.64881 4.82456 7.23214C4.53418 6.93657 4.34679 6.59608 4.26239 6.21065C4.20333 5.9409 3.98667 5.71429 3.71053 5.71429H3.30702C3.03088 5.71429 2.8031 5.93913 2.83762 6.21311C2.93537 6.98891 3.26727 7.6649 3.83333 8.24107C4.51754 8.9375 5.34503 9.28571 6.31579 9.28571ZM4.26239 3.07506C4.20333 3.34482 4.43438 3.57143 4.71053 3.57143H7.92105C8.1972 3.57143 8.42825 3.34482 8.36919 3.07506C8.28479 2.68964 8.0974 2.34914 7.80702 2.05357C7.39766 1.6369 6.90058 1.42857 6.31579 1.42857C5.73099 1.42857 5.23392 1.6369 4.82456 2.05357C4.53418 2.34914 4.34679 2.68964 4.26239 3.07506Z" fill="#050505"/>
</svg>
