<svg width="15" height="15" viewBox="0 0 15 15" fill="none" xmlns="http://www.w3.org/2000/svg">
<path d="M1.66667 15C1.20833 15 0.815972 14.8368 0.489583 14.5104C0.163194 14.184 0 13.7917 0 13.3333V1.66667C0 1.20833 0.163194 0.815972 0.489583 0.489583C0.815972 0.163194 1.20833 0 1.66667 0H7.25C7.38807 0 7.5 0.111929 7.5 0.25V1.41667C7.5 1.55474 7.38807 1.66667 7.25 1.66667H1.91667C1.7786 1.66667 1.66667 1.7786 1.66667 1.91667V13.0833C1.66667 13.2214 1.7786 13.3333 1.91667 13.3333H7.25C7.38807 13.3333 7.5 13.4453 7.5 13.5833V14.75C7.5 14.8881 7.38807 15 7.25 15H1.66667ZM11.0149 11.4851C10.9154 11.5846 10.7535 11.5825 10.6567 11.4804L9.85502 10.635C9.76179 10.5367 9.76384 10.382 9.85965 10.2862L11.3857 8.76011C11.5432 8.60262 11.4317 8.33333 11.2089 8.33333H5.25C5.11193 8.33333 5 8.2214 5 8.08333V6.91667C5 6.7786 5.11193 6.66667 5.25 6.66667H11.2089C11.4317 6.66667 11.5432 6.39738 11.3857 6.23989L9.85965 4.71381C9.76384 4.61801 9.76179 4.46333 9.85502 4.36501L10.6567 3.51962C10.7535 3.41755 10.9154 3.4154 11.0149 3.51487L14.8232 7.32322C14.9209 7.42085 14.9209 7.57915 14.8232 7.67678L11.0149 11.4851Z" fill="#050505"/>
</svg>
