<svg width="15" height="15" viewBox="0 0 15 15" fill="none" xmlns="http://www.w3.org/2000/svg">
<path d="M0.916666 13C0.410406 13 0 12.5896 0 12.0833V12.0833C0 11.5771 0.410406 11.1667 0.916666 11.1667H14.0833C14.5896 11.1667 15 11.5771 15 12.0833V12.0833C15 12.5896 14.5896 13 14.0833 13H0.916666ZM0.916666 8.41667C0.410406 8.41667 0 8.00626 0 7.5V7.5C0 6.99374 0.410406 6.58333 0.916666 6.58333H14.0833C14.5896 6.58333 15 6.99374 15 7.5V7.5C15 8.00626 14.5896 8.41667 14.0833 8.41667H0.916666ZM0.916666 3.83333C0.410406 3.83333 0 3.42293 0 2.91667V2.91667C0 2.41041 0.410406 2 0.916666 2H14.0833C14.5896 2 15 2.41041 15 2.91667V2.91667C15 3.42293 14.5896 3.83333 14.0833 3.83333H0.916666Z" fill="#050505"/>
</svg>
