<svg width="15" height="15" viewBox="0 0 15 15" fill="none" xmlns="http://www.w3.org/2000/svg">
<path d="M2.8 12.4C2.46863 12.7314 1.93137 12.7314 1.6 12.4V12.4C1.26863 12.0686 1.26863 11.5314 1.6 11.2L5.09289 7.70711C5.48342 7.31658 5.48342 6.68342 5.09289 6.29289L1.6 2.8C1.26863 2.46863 1.26863 1.93137 1.6 1.6V1.6C1.93137 1.26863 2.46863 1.26863 2.8 1.6L6.29289 5.09289C6.68342 5.48342 7.31658 5.48342 7.70711 5.09289L11.2 1.6C11.5314 1.26863 12.0686 1.26863 12.4 1.6V1.6C12.7314 1.93137 12.7314 2.46863 12.4 2.8L8.90711 6.29289C8.51658 6.68342 8.51658 7.31658 8.90711 7.70711L12.4 11.2C12.7314 11.5314 12.7314 12.0686 12.4 12.4V12.4C12.0686 12.7314 11.5314 12.7314 11.2 12.4L7.70711 8.90711C7.31658 8.51658 6.68342 8.51658 6.29289 8.90711L2.8 12.4Z" fill="#050505"/>
</svg>
